<?xml version="1.0" encoding="utf-8"?>
<!-- Generator: Adobe Illustrator 16.0.4, SVG Export Plug-In . SVG Version: 6.00 Build 0)  -->
<!DOCTYPE svg PUBLIC "-//W3C//DTD SVG 1.1//EN" "http://www.w3.org/Graphics/SVG/1.1/DTD/svg11.dtd">
<svg version="1.1" id="Layer_1" xmlns="http://www.w3.org/2000/svg" xmlns:xlink="http://www.w3.org/1999/xlink" x="0px" y="0px"
	 width="581.57px" height="130.445px" viewBox="0 0 581.57 130.445" enable-background="new 0 0 581.57 130.445"
	 xml:space="preserve">
<path fill="#020202" d="M159.545,30.004c-1.719,0.468-3.337,1.107-4.853,1.923v17.84h-11.629c-3.088,0-5.977,0.583-8.656,1.749
	c-2.681,1.166-5.025,2.754-7.039,4.765c-2.01,2.011-3.6,4.358-4.765,7.039c-1.168,2.682-1.749,5.568-1.749,8.657
	c0,3.092,0.581,5.977,1.749,8.655c1.166,2.683,2.755,5.028,4.765,7.039c2.014,2.012,4.358,3.601,7.039,4.768
	c2.683,1.165,5.567,1.748,8.656,1.748c3.09,0,5.99-0.583,8.702-1.748c2.71-1.164,5.07-2.756,7.082-4.768
	c2.012-2.011,3.601-4.356,4.768-7.039c1.166-2.68,1.748-5.563,1.748-8.655V29.302C163.202,29.302,161.264,29.537,159.545,30.004z
	 M154.99,72.417c-0.013,6.477-4.916,11.794-11.205,12.481l-1.484-0.004c-3.45-0.006-6.579-1.403-8.848-3.663
	c-2.247-2.277-3.635-5.408-3.629-8.865l0.004-1.481c0.71-6.288,6.05-11.17,12.527-11.154l12.661,0.023L154.99,72.417z"/>
<path fill="#F8502A" d="M432.071,30.004c-1.719,0.468-3.339,1.107-4.853,1.923v17.84h-11.628c-3.088,0-5.979,0.583-8.655,1.749
	c-2.682,1.166-5.027,2.754-7.04,4.765c-2.009,2.011-3.601,4.358-4.765,7.039c-1.167,2.682-1.75,5.568-1.75,8.657
	c0,3.092,0.583,5.977,1.75,8.655c1.164,2.683,2.756,5.028,4.765,7.039c2.013,2.012,4.358,3.601,7.04,4.768
	c2.681,1.165,5.567,1.748,8.655,1.748c3.092,0,5.988-0.583,8.702-1.748c2.709-1.164,5.071-2.756,7.08-4.768
	c2.014-2.011,3.602-4.356,4.768-7.039c1.164-2.68,1.748-5.563,1.748-8.655V29.302C435.727,29.302,433.789,29.537,432.071,30.004z
	 M427.517,72.417c-0.015,6.477-4.916,11.794-11.203,12.481l-1.486-0.004c-3.452-0.006-6.581-1.403-8.85-3.663
	c-2.248-2.277-3.632-5.408-3.626-8.865l0.003-1.481c0.71-6.288,6.049-11.17,12.526-11.154l12.663,0.023L427.517,72.417z"/>
<path fill="#F8502A" d="M90.243,39.919L56.69,5.195L21.967,38.747C4.214,55.904,2.558,83.439,17.307,102.534l3.93,4.064
	c9.153,9.473,21.262,14.358,33.466,14.625c12.206,0.152,24.477-4.316,33.946-13.472l4.065-3.928
	C108.11,85.249,107.399,57.673,90.243,39.919z M87.668,83.667c0,17.019-12.854,31.027-29.385,32.862l-3.896-0.001
	c-9.079,0-17.304-3.661-23.278-9.583c-5.923-5.979-9.584-14.199-9.585-23.278V79.77c1.834-16.529,15.845-29.387,32.859-29.387
	h33.284V83.667z"/>
<path fill="#F8502A" d="M43.465,102.317c3.472,3.453,8.25,5.593,13.534,5.603l2.27,0.005c9.62-1.049,17.116-9.185,17.137-19.087
	l0.038-19.364l-19.366-0.039c-9.902-0.021-18.068,7.443-19.155,17.061l-0.004,2.27C37.905,94.044,40.025,98.833,43.465,102.317z"/>
<path fill="#020202" d="M192.452,50.536c1.341,0,2.639,0.118,3.891,0.349c1.253,0.233,2.461,0.583,3.63,1.051l-2.974,6.645
	c-1.517-0.581-3.033-0.814-4.547-0.699c-1.574,0-3.062,0.394-4.462,1.181c-1.397,0.787-2.621,1.854-3.673,3.191
	c-1.049,1.342-1.88,2.916-2.492,4.722c-0.612,1.808-0.918,3.731-0.918,5.771v16.876c-1.517,0.818-3.133,1.458-4.853,1.925
	c-1.722,0.469-3.659,0.7-5.814,0.7v-19.5c0-3.031,0.581-5.902,1.748-8.612c1.167-2.711,2.755-5.071,4.767-7.083
	c2.01-2.011,4.356-3.598,7.039-4.768C186.476,51.118,189.361,50.536,192.452,50.536z"/>
<path fill="#020202" d="M222.181,49.399c3.09,0,5.976,0.583,8.655,1.75c2.682,1.166,5.026,2.754,7.039,4.765
	c2.011,2.011,3.6,4.358,4.767,7.04s1.75,5.567,1.75,8.657v20.81c-2.1,0-4.011-0.229-5.73-0.697
	c-1.721-0.468-3.337-1.106-4.853-1.926V71.61c0-1.051-0.074-2.056-0.218-3.019c-0.147-0.962-0.365-1.907-0.653-2.842
	c-0.937-2.681-2.349-4.866-4.241-6.558c-1.896-1.691-4.065-2.536-6.516-2.536c-1.574,0-3.074,0.396-4.503,1.181
	c-1.43,0.787-2.667,1.853-3.717,3.191c-1.052,1.343-1.881,2.914-2.495,4.722c-0.611,1.809-0.917,3.76-0.917,5.859
	c0,2.039,0.305,3.964,0.917,5.771c0.613,1.808,1.443,3.381,2.495,4.722c1.05,1.344,2.284,2.404,3.717,3.191
	c1.428,0.787,2.929,1.182,4.503,1.182c1.864,0,3.601-0.524,5.201-1.573c1.604-1.05,2.957-2.506,4.067-4.372v11.279
	c-1.402,0.641-2.874,1.137-4.416,1.486c-1.548,0.351-3.164,0.523-4.854,0.523c-3.09,0-5.979-0.582-8.656-1.748
	c-2.682-1.165-5.025-2.755-7.039-4.766c-2.009-2.013-3.599-4.358-4.766-7.04c-1.168-2.681-1.747-5.564-1.747-8.655
	c0-3.09,0.58-5.977,1.747-8.657c1.167-2.68,2.757-5.028,4.766-7.04c2.014-2.011,4.357-3.599,7.039-4.765
	C216.205,49.983,219.093,49.399,222.181,49.399z"/>
<path fill="#020202" d="M270.713,49.574c3.03,0,5.845,0.582,8.438,1.749c2.592,1.167,4.837,2.754,6.73,4.765
	c1.896,2.012,3.367,4.372,4.415,7.083c1.051,2.71,1.574,5.584,1.574,8.613l-0.089,22.473c0,3.091-0.583,5.976-1.747,8.656
	c-1.167,2.68-2.757,5.027-4.769,7.039c-2.013,2.011-4.357,3.599-7.039,4.766c-2.684,1.166-5.565,1.748-8.655,1.748
	c-2.622,0-5.086-0.406-7.387-1.224c-2.304-0.817-4.389-1.981-6.252-3.497c0.347-1.167,0.815-2.305,1.397-3.411
	c0.581-1.106,1.312-2.216,2.188-3.321l0.09-0.089c1.862,1.865,3.656,3.062,5.375,3.585c1.72,0.525,3.249,0.76,4.589,0.7
	c1.573,0,3.062-0.38,4.461-1.138s2.625-1.809,3.674-3.147c1.052-1.343,1.896-2.915,2.536-4.721c0.638-1.808,0.961-3.73,0.961-5.771
	V71.61c0-2.041-0.248-3.966-0.745-5.771c-0.495-1.806-1.211-3.38-2.143-4.722c-0.934-1.341-2.04-2.39-3.32-3.148
	c-1.285-0.756-2.71-1.137-4.284-1.137c-1.571,0-3.016,0.395-4.329,1.182c-1.312,0.786-2.418,1.864-3.321,3.234
	c-0.905,1.37-1.605,2.96-2.098,4.767c-0.498,1.807-0.743,3.731-0.743,5.771c0,2.041,0.245,3.979,0.743,5.813
	c0.494,1.838,1.191,3.426,2.098,4.767c0.903,1.341,2.011,2.404,3.321,3.191c1.312,0.785,2.758,1.181,4.329,1.181
	c1.864,0,3.425-0.539,4.679-1.618c1.251-1.079,2.403-2.521,3.454-4.328v11.192c-1.398,0.641-2.685,1.137-3.849,1.486
	c-1.169,0.35-2.595,0.523-4.284,0.523c-3.09,0-5.918-0.582-8.481-1.747c-2.564-1.167-4.777-2.756-6.646-4.767
	c-1.865-2.012-3.322-4.358-4.372-7.039c-1.051-2.681-1.573-5.566-1.573-8.656c0-3.029,0.522-5.903,1.573-8.613
	c1.05-2.711,2.507-5.071,4.372-7.083c1.864-2.011,4.08-3.598,6.646-4.765C264.795,50.156,267.623,49.574,270.713,49.574z"/>
<path fill="#020202" d="M318.891,49.313c3.029,0,5.9,0.582,8.611,1.748c2.71,1.167,5.07,2.755,7.082,4.766
	c2.013,2.011,3.601,4.372,4.768,7.082c1.164,2.712,1.748,5.584,1.748,8.613c0,3.092-0.584,5.978-1.748,8.658
	c-1.167,2.681-2.755,5.026-4.768,7.038c-2.012,2.012-4.372,3.6-7.082,4.766c-2.711,1.164-5.582,1.749-8.611,1.749
	c-3.092,0-5.978-0.583-8.655-1.749c-2.683-1.166-5.026-2.754-7.039-4.766c-2.012-2.012-3.602-4.357-4.768-7.038
	c-1.167-2.682-1.748-5.566-1.748-8.658c0-3.031,0.581-5.901,1.748-8.613c1.166-2.709,2.756-5.07,4.768-7.082
	c2.013-2.011,4.356-3.601,7.039-4.766C312.919,49.895,315.801,49.313,318.891,49.313z M318.891,86.475
	c1.572,0,3.074-0.396,4.503-1.183c1.427-0.787,2.667-1.849,3.717-3.189c1.052-1.342,1.881-2.932,2.492-4.768
	c0.613-1.836,0.92-3.771,0.92-5.814c0-2.039-0.307-3.963-0.92-5.771c-0.611-1.808-1.44-3.396-2.492-4.765
	c-1.05-1.37-2.287-2.45-3.717-3.237c-1.427-0.786-2.931-1.18-4.503-1.18c-1.633,0-3.148,0.394-4.548,1.18
	c-1.398,0.787-2.624,1.867-3.672,3.237c-1.053,1.369-1.882,2.957-2.493,4.765c-0.612,1.809-0.919,3.731-0.919,5.771
	c0,2.041,0.307,3.979,0.919,5.814c0.611,1.836,1.44,3.427,2.493,4.768c1.048,1.342,2.272,2.402,3.672,3.189
	C315.743,86.081,317.26,86.475,318.891,86.475z"/>
<path fill="#020202" d="M366.982,49.313c3.092,0,5.933,0.582,8.528,1.748c2.592,1.167,4.822,2.755,6.689,4.766
	c1.863,2.011,3.32,4.372,4.372,7.082c1.048,2.712,1.574,5.584,1.574,8.613v18.188c-1.518,0.816-3.137,1.472-4.854,1.967
	c-1.725,0.495-3.662,0.742-5.813,0.742V71.521c0-2.039-0.249-3.963-0.743-5.771c-0.498-1.808-1.194-3.396-2.101-4.765
	c-0.903-1.37-1.997-2.45-3.279-3.237c-1.28-0.786-2.739-1.18-4.372-1.18c-1.572,0-3.014,0.394-4.326,1.18
	c-1.312,0.787-2.42,1.867-3.325,3.237c-0.902,1.369-1.602,2.957-2.095,4.765c-0.496,1.809-0.744,3.731-0.744,5.771V89.71
	c-1.517,0.816-3.133,1.472-4.854,1.967c-1.72,0.495-3.627,0.742-5.729,0.742V71.521c0-3.031,0.523-5.901,1.573-8.613
	c1.05-2.709,2.505-5.069,4.372-7.082c1.865-2.011,4.079-3.601,6.646-4.766C361.069,49.895,363.892,49.313,366.982,49.313z"/>
<path fill="#F8502A" d="M465.354,50.536c1.341,0,2.639,0.118,3.892,0.349c1.252,0.233,2.462,0.583,3.63,1.051L469.9,58.58
	c-1.517-0.581-3.031-0.814-4.546-0.699c-1.573,0-3.06,0.394-4.46,1.181s-2.624,1.854-3.675,3.191
	c-1.05,1.342-1.882,2.916-2.493,4.722c-0.612,1.808-0.917,3.731-0.917,5.771v16.876c-1.517,0.818-3.131,1.458-4.854,1.925
	c-1.723,0.469-3.66,0.7-5.813,0.7v-19.5c0-3.031,0.579-5.902,1.746-8.612c1.169-2.711,2.759-5.071,4.769-7.083
	c2.013-2.011,4.356-3.598,7.039-4.768C459.38,51.118,462.261,50.536,465.354,50.536z"/>
<path fill="#F8502A" d="M495.521,49.313c3.031,0,5.903,0.582,8.613,1.748c2.706,1.167,5.068,2.755,7.078,4.766
	c2.016,2.011,3.604,4.372,4.769,7.082c1.164,2.712,1.747,5.584,1.747,8.613c0,3.092-0.583,5.978-1.747,8.658
	c-1.167,2.681-2.756,5.026-4.769,7.038c-2.01,2.012-4.372,3.6-7.078,4.766c-2.71,1.164-5.582,1.749-8.613,1.749
	c-3.092,0-5.975-0.583-8.653-1.749c-2.685-1.166-5.029-2.754-7.039-4.766c-2.016-2.012-3.604-4.357-4.768-7.038
	c-1.167-2.682-1.751-5.566-1.751-8.658c0-3.031,0.584-5.901,1.751-8.613c1.164-2.709,2.752-5.07,4.768-7.082
	c2.01-2.011,4.354-3.601,7.039-4.766C489.549,49.895,492.429,49.313,495.521,49.313z M495.521,86.475
	c1.573,0,3.074-0.396,4.503-1.183c1.43-0.787,2.667-1.849,3.717-3.189c1.051-1.342,1.879-2.932,2.491-4.768
	c0.614-1.836,0.922-3.771,0.922-5.814c0-2.039-0.308-3.963-0.922-5.771c-0.612-1.808-1.44-3.396-2.491-4.765
	c-1.05-1.37-2.285-2.45-3.717-3.237c-1.428-0.786-2.93-1.18-4.503-1.18c-1.632,0-3.148,0.394-4.546,1.18
	c-1.4,0.787-2.625,1.867-3.674,3.237c-1.05,1.369-1.878,2.957-2.49,4.765c-0.612,1.809-0.919,3.731-0.919,5.771
	c0,2.041,0.307,3.979,0.919,5.814s1.44,3.427,2.49,4.768c1.051,1.342,2.273,2.402,3.674,3.189
	C492.373,86.081,493.889,86.475,495.521,86.475z"/>
<path fill="#F8502A" d="M544.751,49.313c3.031,0,5.903,0.582,8.613,1.748c2.707,1.167,5.069,2.755,7.079,4.766
	c2.013,2.011,3.604,4.372,4.769,7.082c1.163,2.712,1.744,5.584,1.744,8.613c0,3.092-0.581,5.978-1.744,8.658
	c-1.171,2.681-2.759,5.026-4.769,7.038s-4.372,3.6-7.079,4.766c-2.71,1.164-5.582,1.749-8.613,1.749c-3.265,0-6.323-0.67-9.18-2.011
	V80.529c1.048,1.807,2.374,3.249,3.978,4.328c1.603,1.08,3.339,1.618,5.202,1.618c1.574,0,3.071-0.396,4.504-1.183
	c1.428-0.787,2.667-1.849,3.718-3.189c1.05-1.341,1.879-2.932,2.49-4.768s0.92-3.771,0.92-5.814c0-2.039-0.309-3.963-0.92-5.771
	c-0.611-1.808-1.44-3.396-2.49-4.765c-1.051-1.37-2.288-2.45-3.718-3.237c-1.431-0.786-2.93-1.18-4.504-1.18
	c-1.573,0-3.073,0.38-4.503,1.137c-1.429,0.757-2.667,1.808-3.717,3.148c-1.051,1.342-1.882,2.916-2.494,4.721
	c-0.61,1.807-0.919,3.731-0.919,5.771v40.226c-1.515,0.814-3.117,1.456-4.808,1.923c-1.691,0.467-3.615,0.7-5.772,0.7V71.521
	c0-3.031,0.583-5.901,1.75-8.613c1.164-2.709,2.754-5.07,4.766-7.082c2.013-2.011,4.357-3.599,7.04-4.766
	C538.773,49.895,541.66,49.313,544.751,49.313z"/>
</svg>
