<?xml version="1.0" encoding="utf-8"?>
<!-- Generator: Adobe Illustrator 16.0.4, SVG Export Plug-In . SVG Version: 6.00 Build 0)  -->
<!DOCTYPE svg PUBLIC "-//W3C//DTD SVG 1.1//EN" "http://www.w3.org/Graphics/SVG/1.1/DTD/svg11.dtd">
<svg version="1.1" id="Layer_1" xmlns="http://www.w3.org/2000/svg" xmlns:xlink="http://www.w3.org/1999/xlink" x="0px" y="0px"
	 width="581.57px" height="130.445px" viewBox="0 0 581.57 130.445" enable-background="new 0 0 581.57 130.445"
	 xml:space="preserve">
<path fill="#F8502A" d="M92.436,43.453L61.258,11.186L28.994,42.364c-16.497,15.942-18.036,41.528-4.328,59.269l3.65,3.778
	c8.503,8.805,19.753,13.344,31.095,13.591c11.34,0.142,22.742-4.014,31.544-12.52l3.78-3.647
	C109.039,85.573,108.38,59.949,92.436,43.453z M85.854,91.78l-2.752,2.656c-6.411,6.191-14.711,9.221-22.971,9.112
	c-8.256-0.18-16.446-3.485-22.639-9.893l-2.66-2.752c-9.979-12.919-8.858-31.548,3.151-43.157l23.493-22.702l5.987,6.197
	L51.935,46.25c-8.4,8.117-9.185,21.148-2.205,30.182l1.859,1.924c4.329,4.48,10.059,6.793,15.833,6.917
	c5.774,0.074,11.579-2.042,16.062-6.373l1.924-1.856c4.889-5.897,6.328-13.713,4.302-20.756
	C95.542,67.644,94.225,81.677,85.854,91.78z"/>
<g>
	<path fill="#F8502A" d="M153.49,89.578c0-0.384,0-0.833,0.064-1.412c-4.303,3.468-7.577,4.623-12.972,4.623
		c-11.687,0-18.751-7.834-18.751-20.804c0-6.68,1.927-12.009,5.522-15.669c3.274-3.275,7.771-5.009,13.036-5.009
		c5.2,0,8.925,1.349,13.164,4.752c-0.064-0.965-0.064-1.542-0.064-2.44v-5.33c0-4.495-0.129-7.257-0.514-10.082h13.164
		c-0.387,2.697-0.515,5.779-0.515,10.082v33.263c0,4.304,0.128,6.935,0.515,10.081h-12.65V89.578L153.49,89.578z M134.289,72.047
		c0,3.66,1.028,6.616,2.954,8.479c1.542,1.539,3.854,2.438,6.229,2.438c5.715,0,9.889-4.752,9.889-11.109
		c0-6.229-4.109-10.725-9.954-10.725C137.821,61.132,134.289,65.305,134.289,72.047z"/>
	<path fill="#F8502A" d="M201.773,64.021c-2.953-0.898-4.56-1.221-6.55-1.221c-3.275,0-5.779,1.156-7.642,3.468
		c-1.22,1.541-1.669,2.89-1.926,5.717v10.016c0,4.11,0.128,6.551,0.513,9.633h-13.292c0.385-3.21,0.514-5.521,0.514-9.697V62.159
		c0-4.688-0.129-6.935-0.514-9.696h12.778v5.073c3.146-4.109,6.999-5.844,12.843-5.844c2.054,0,3.339,0.128,6.356,0.771
		L201.773,64.021z"/>
	<path fill="#F8502A" d="M234.455,64.792c0-3.082-1.862-4.494-6.101-4.494c-4.109,0-6.292,1.349-7.256,4.494l-12.265-1.99
		c1.284-3.788,2.696-5.844,5.395-7.77c3.467-2.44,8.218-3.66,14.447-3.66c4.753,0,9.375,0.898,11.881,2.248
		c4.108,2.247,5.905,5.779,5.905,11.558v17.338c0,3.918,0.128,6.229,0.45,9.118h-12.457V88.68c-3.596,2.762-7.19,3.854-12.458,3.854
		c-4.879,0-8.54-1.157-11.107-3.532c-2.312-2.119-3.532-5.202-3.532-8.733c0-4.044,1.604-7.255,4.687-9.374
		c3.276-2.312,7.578-3.66,13.357-4.176c2.504-0.256,4.429-0.318,9.054-0.448V64.792z M234.455,74.488
		c-5.715,0.129-8.477,0.449-11.108,1.284c-2.312,0.771-3.726,2.376-3.726,4.237c0,2.312,1.927,3.66,5.266,3.66
		c2.633,0,5.521-0.964,7.256-2.439c1.477-1.284,2.312-3.018,2.312-4.944L234.455,74.488L234.455,74.488z"/>
	<path fill="#F8502A" d="M262.319,90.542c2.248,2.891,5.521,4.366,9.76,4.366c3.533,0,6.293-0.963,7.834-2.824
		c1.349-1.542,1.927-3.469,2.056-6.871c-3.275,2.953-6.743,4.237-11.688,4.237c-11.174,0-18.238-7.32-18.238-19.007
		c0-11.43,7.256-18.943,18.238-18.943c4.751,0,8.219,1.092,11.688,3.725c0-0.514,0-0.706,0-1.413v-1.349h12.586
		c-0.387,2.89-0.516,5.138-0.516,8.926v22.537c0,7.707-2.183,12.908-6.679,16.056c-3.466,2.439-8.86,3.788-15.282,3.788
		c-8.731,0-14.511-2.185-19.006-7.126L262.319,90.542z M272.656,80.204c5.266,0,9.054-4.047,9.054-9.761
		c0-5.715-3.788-9.825-8.987-9.825c-5.139,0-8.478,3.918-8.478,9.89C264.245,76.416,267.584,80.204,272.656,80.204z"/>
	<path fill="#F8502A" d="M299.685,71.985c0-12.843,8.22-20.999,21.191-20.999c12.971,0,21.189,8.156,21.189,20.869
		c0,12.778-8.476,21.255-21.254,21.255C307.905,93.11,299.685,84.891,299.685,71.985z M311.951,71.919
		c0,7.127,3.339,11.432,8.927,11.432c5.586,0,8.796-4.175,8.796-11.304c0-7.189-3.274-11.429-8.732-11.429
		C315.29,60.618,311.951,64.856,311.951,71.919z"/>
	<path fill="#F8502A" d="M347.264,91.634c0.386-3.019,0.515-5.716,0.515-9.697V62.159c0-4.43-0.129-7.127-0.515-9.696h12.777v2.697
		c0,0.385-0.063,1.349-0.063,1.798c4.046-3.853,7.964-5.458,13.228-5.458c4.433,0,7.965,1.22,10.341,3.597
		c2.567,2.567,3.658,5.716,3.658,10.787v16.117c0,3.726,0.193,6.938,0.516,9.633h-13.357c0.386-3.082,0.515-5.777,0.515-9.697
		V68.774c0-2.569-0.258-3.661-1.026-4.753c-0.835-1.155-2.312-1.798-4.238-1.798c-3.596,0-6.807,2.248-9.567,6.741v12.971
		c0,3.66,0.129,6.357,0.515,9.697L347.264,91.634L347.264,91.634z"/>
	<path fill="#F8502A" d="M424.381,89.578c0-0.384,0-0.833,0.063-1.412c-4.302,3.468-7.576,4.623-12.971,4.623
		c-11.688,0-18.751-7.834-18.751-20.804c0-6.68,1.927-12.009,5.521-15.669c3.276-3.275,7.771-5.009,13.035-5.009
		c5.202,0,8.927,1.349,13.164,4.752c-0.063-0.965-0.063-1.542-0.063-2.44v-5.33c0-4.495-0.127-7.257-0.514-10.082h13.164
		c-0.386,2.697-0.515,5.779-0.515,10.082v33.263c0,4.304,0.129,6.935,0.515,10.081h-12.649V89.578z M405.181,72.047
		c0,3.66,1.025,6.616,2.954,8.479c1.539,1.539,3.852,2.438,6.229,2.438c5.714,0,9.89-4.752,9.89-11.109
		c0-6.229-4.11-10.725-9.953-10.725C408.713,61.132,405.181,65.305,405.181,72.047z"/>
	<path fill="#F8502A" d="M472.665,64.021c-2.953-0.898-4.561-1.221-6.55-1.221c-3.273,0-5.777,1.156-7.642,3.468
		c-1.22,1.541-1.67,2.89-1.927,5.717v10.016c0,4.11,0.13,6.551,0.515,9.633h-13.293c0.386-3.21,0.514-5.521,0.514-9.697V62.159
		c0-4.688-0.128-6.935-0.514-9.696h12.778v5.073c3.146-4.109,6.999-5.844,12.844-5.844c2.055,0,3.339,0.128,6.355,0.771
		L472.665,64.021z"/>
	<path fill="#F8502A" d="M477.927,71.985c0-12.843,8.22-20.999,21.191-20.999c12.971,0,21.189,8.156,21.189,20.869
		c0,12.778-8.477,21.255-21.254,21.255C486.146,93.11,477.927,84.891,477.927,71.985z M490.192,71.919
		c0,7.127,3.339,11.432,8.927,11.432c5.585,0,8.796-4.175,8.796-11.304c0-7.189-3.273-11.429-8.732-11.429
		C493.531,60.618,490.192,64.856,490.192,71.919z"/>
	<path fill="#F8502A" d="M525.507,103.255c0.32-2.761,0.515-5.97,0.515-9.374V62.545c0-4.174-0.13-6.807-0.515-10.082h12.649v2.184
		c0,0.386-0.062,0.898-0.062,1.22c3.852-3.211,7.834-4.56,13.163-4.56c5.65,0,10.273,1.67,13.612,4.944
		c3.403,3.403,5.139,8.478,5.139,14.962c0,6.551-1.928,11.879-5.587,15.541c-3.275,3.272-7.962,5.072-13.229,5.072
		c-3.019,0-6.294-0.642-8.668-1.672c-1.67-0.705-2.634-1.41-4.431-2.952c0,0.578,0,1.412,0.062,2.312v4.431
		c0,3.596,0.128,6.549,0.514,9.31H525.507z M554.659,79.689c1.799-1.734,2.825-4.688,2.825-8.349c0-6.55-3.467-10.338-9.503-10.338
		c-5.331,0-9.697,4.688-9.697,10.531c0,6.035,4.305,10.595,10.082,10.595C550.806,82.13,552.989,81.295,554.659,79.689z"/>
</g>
</svg>
