<?xml version="1.0" encoding="utf-8"?>
<!-- Generator: Adobe Illustrator 16.0.4, SVG Export Plug-In . SVG Version: 6.00 Build 0)  -->
<!DOCTYPE svg PUBLIC "-//W3C//DTD SVG 1.1//EN" "http://www.w3.org/Graphics/SVG/1.1/DTD/svg11.dtd">
<svg version="1.1" id="Layer_1" xmlns="http://www.w3.org/2000/svg" xmlns:xlink="http://www.w3.org/1999/xlink" x="0px" y="0px"
	 width="110.285px" height="130.445px" viewBox="0 0 110.285 130.445" enable-background="new 0 0 110.285 130.445"
	 xml:space="preserve">
<path opacity="0.2" enable-background="new    " d="M90.793,41.164L56.352,5.52L20.71,39.961
	C2.487,57.572,0.787,85.836,15.929,105.432l4.033,4.174c9.393,9.727,21.821,14.741,34.349,15.014
	c12.528,0.155,25.123-4.434,34.846-13.83l4.176-4.028C109.134,87.692,108.405,59.386,90.793,41.164z M83.521,94.55l-3.04,2.934
	c-7.081,6.841-16.251,10.186-25.373,10.067c-9.121-0.198-18.169-3.851-25.009-10.928l-2.938-3.04
	c-11.025-14.272-9.786-34.85,3.481-47.675L56.593,20.83l6.614,6.845L46.053,44.254c-9.28,8.967-10.146,23.361-2.436,33.341
	l2.055,2.124c4.782,4.951,11.111,7.505,17.49,7.642c6.379,0.082,12.792-2.256,17.744-7.04l2.125-2.051
	c5.4-6.517,6.991-15.148,4.754-22.929C94.224,67.887,92.77,83.388,83.521,94.55z"/>
</svg>
