<?xml version="1.0" encoding="utf-8"?>
<!-- Generator: Adobe Illustrator 16.0.4, SVG Export Plug-In . SVG Version: 6.00 Build 0)  -->
<!DOCTYPE svg PUBLIC "-//W3C//DTD SVG 1.1//EN" "http://www.w3.org/Graphics/SVG/1.1/DTD/svg11.dtd">
<svg version="1.1" id="Layer_1" xmlns="http://www.w3.org/2000/svg" xmlns:xlink="http://www.w3.org/1999/xlink" x="0px" y="0px"
	 width="110.285px" height="130.445px" viewBox="0 0 110.285 130.445" enable-background="new 0 0 110.285 130.445"
	 xml:space="preserve">
<path opacity="0.2" d="M90.243,39.919L56.69,5.195L21.967,38.747C4.214,55.904,2.558,83.439,17.307,102.534l3.93,4.064
	c9.153,9.473,21.262,14.358,33.466,14.625c12.206,0.152,24.477-4.316,33.946-13.472l4.065-3.928
	C108.11,85.249,107.399,57.673,90.243,39.919z M87.668,83.667c0,17.019-12.854,31.027-29.385,32.862l-3.896-0.001
	c-9.079,0-17.304-3.661-23.278-9.583c-5.923-5.979-9.584-14.199-9.585-23.278V79.77c1.834-16.529,15.845-29.387,32.859-29.387
	h33.284V83.667z"/>
<path opacity="0.2" d="M43.465,102.317c3.472,3.453,8.25,5.593,13.534,5.603l2.27,0.005c9.62-1.049,17.116-9.185,17.137-19.087
	l0.038-19.364l-19.366-0.039c-9.902-0.021-18.068,7.443-19.155,17.061l-0.004,2.27C37.905,94.044,40.025,98.833,43.465,102.317z"/>
</svg>
