<?xml version="1.0" encoding="utf-8"?>
<!-- Generator: Adobe Illustrator 16.0.4, SVG Export Plug-In . SVG Version: 6.00 Build 0)  -->
<!DOCTYPE svg PUBLIC "-//W3C//DTD SVG 1.1//EN" "http://www.w3.org/Graphics/SVG/1.1/DTD/svg11.dtd">
<svg version="1.1" id="Layer_1" xmlns="http://www.w3.org/2000/svg" xmlns:xlink="http://www.w3.org/1999/xlink" x="0px" y="0px"
	 width="581.57px" height="130.445px" viewBox="0 0 581.57 130.445" enable-background="new 0 0 581.57 130.445"
	 xml:space="preserve">
<path fill="#FFFFFF" d="M159.545,30.004c-1.719,0.467-3.337,1.107-4.853,1.923v17.839h-11.629c-3.088,0-5.976,0.583-8.656,1.749
	c-2.681,1.166-5.025,2.754-7.039,4.765c-2.01,2.011-3.6,4.358-4.765,7.039c-1.168,2.682-1.749,5.568-1.749,8.657
	c0,3.092,0.581,5.977,1.749,8.656c1.166,2.682,2.755,5.028,4.765,7.039c2.014,2.011,4.358,3.6,7.039,4.767
	c2.683,1.165,5.567,1.748,8.656,1.748c3.09,0,5.99-0.583,8.702-1.748c2.71-1.164,5.071-2.756,7.082-4.767
	c2.012-2.011,3.601-4.357,4.768-7.039c1.166-2.68,1.748-5.564,1.748-8.656V29.303C163.202,29.303,161.264,29.537,159.545,30.004z
	 M154.99,72.417c-0.013,6.476-4.916,11.794-11.205,12.481l-1.484-0.004c-3.451-0.006-6.58-1.403-8.848-3.663
	c-2.247-2.277-3.635-5.408-3.629-8.865l0.004-1.481c0.71-6.289,6.05-11.17,12.527-11.155l12.661,0.024L154.99,72.417z"/>
<path fill="#FFFFFF" d="M432.071,30.004c-1.719,0.467-3.339,1.107-4.853,1.923v17.839h-11.628c-3.088,0-5.978,0.583-8.655,1.749
	c-2.682,1.166-5.027,2.754-7.04,4.765c-2.009,2.011-3.601,4.358-4.765,7.039c-1.167,2.682-1.75,5.568-1.75,8.657
	c0,3.092,0.583,5.977,1.75,8.656c1.164,2.682,2.756,5.028,4.765,7.039c2.013,2.011,4.358,3.6,7.04,4.767
	c2.681,1.165,5.567,1.748,8.655,1.748c3.092,0,5.989-0.583,8.702-1.748c2.709-1.164,5.072-2.756,7.081-4.767
	c2.013-2.011,3.601-4.357,4.767-7.039c1.164-2.68,1.748-5.564,1.748-8.656V29.303C435.727,29.303,433.789,29.537,432.071,30.004z
	 M427.517,72.417c-0.015,6.476-4.916,11.794-11.203,12.481l-1.486-0.004c-3.453-0.006-6.581-1.403-8.85-3.663
	c-2.248-2.277-3.632-5.408-3.626-8.865l0.003-1.481c0.71-6.289,6.049-11.17,12.526-11.155l12.663,0.024L427.517,72.417z"/>
<path fill="#FFFFFF" d="M90.243,39.919L56.69,5.195L21.967,38.747C4.214,55.904,2.558,83.439,17.307,102.534l3.93,4.064
	c9.153,9.473,21.262,14.359,33.466,14.625c12.206,0.153,24.476-4.316,33.946-13.471l4.066-3.928
	C108.11,85.249,107.399,57.673,90.243,39.919z M87.668,83.667c0,17.018-12.855,31.027-29.385,32.862l-3.896-0.001
	c-9.079,0-17.303-3.661-23.278-9.583c-5.923-5.978-9.584-14.199-9.585-23.278V79.77c1.834-16.529,15.845-29.386,32.86-29.386h33.284
	V83.667z"/>
<path fill="#FFFFFF" d="M43.465,102.317c3.471,3.453,8.25,5.593,13.534,5.603l2.269,0.005c9.62-1.049,17.117-9.185,17.137-19.087
	l0.038-19.365l-19.366-0.039c-9.902-0.02-18.068,7.444-19.155,17.061l-0.004,2.269C37.905,94.044,40.025,98.833,43.465,102.317z"/>
<path fill="#FFFFFF" d="M192.452,50.536c1.341,0,2.639,0.118,3.891,0.349c1.252,0.233,2.46,0.583,3.629,1.05l-2.973,6.645
	c-1.517-0.581-3.033-0.815-4.547-0.699c-1.574,0-3.062,0.393-4.462,1.18c-1.397,0.787-2.621,1.854-3.673,3.192
	c-1.049,1.342-1.88,2.916-2.492,4.721c-0.612,1.808-0.918,3.732-0.918,5.771v16.876c-1.517,0.818-3.133,1.458-4.853,1.925
	c-1.721,0.468-3.659,0.7-5.814,0.7V72.746c0-3.031,0.581-5.902,1.748-8.612c1.167-2.711,2.755-5.072,4.767-7.083
	c2.009-2.011,4.356-3.598,7.039-4.768C186.476,51.118,189.361,50.536,192.452,50.536z"/>
<path fill="#FFFFFF" d="M222.181,49.399c3.09,0,5.976,0.583,8.656,1.75c2.681,1.166,5.026,2.754,7.039,4.765
	c2.01,2.011,3.599,4.358,4.766,7.04s1.75,5.567,1.75,8.657v20.81c-2.099,0-4.01-0.23-5.73-0.698
	c-1.721-0.467-3.337-1.106-4.853-1.925V71.61c0-1.051-0.074-2.056-0.217-3.018c-0.148-0.962-0.366-1.908-0.654-2.842
	c-0.936-2.681-2.348-4.866-4.241-6.558c-1.896-1.691-4.065-2.536-6.516-2.536c-1.574,0-3.074,0.396-4.503,1.181
	c-1.429,0.787-2.667,1.852-3.716,3.191c-1.052,1.343-1.881,2.914-2.495,4.722c-0.612,1.808-0.917,3.76-0.917,5.859
	c0,2.039,0.304,3.964,0.917,5.771c0.613,1.807,1.443,3.381,2.495,4.721c1.049,1.344,2.284,2.405,3.716,3.192
	c1.428,0.787,2.929,1.181,4.503,1.181c1.865,0,3.601-0.524,5.202-1.573c1.604-1.05,2.957-2.506,4.067-4.372v11.279
	c-1.402,0.641-2.874,1.137-4.416,1.487c-1.548,0.35-3.164,0.523-4.854,0.523c-3.089,0-5.978-0.582-8.656-1.748
	c-2.681-1.165-5.025-2.755-7.039-4.766c-2.009-2.012-3.599-4.358-4.766-7.04c-1.167-2.68-1.747-5.564-1.747-8.655
	c0-3.09,0.58-5.976,1.747-8.657c1.167-2.68,2.757-5.028,4.766-7.04c2.014-2.011,4.358-3.599,7.039-4.765
	C216.205,49.983,219.093,49.399,222.181,49.399z"/>
<path fill="#FFFFFF" d="M270.713,49.574c3.03,0,5.844,0.582,8.438,1.749c2.592,1.167,4.837,2.754,6.731,4.765
	c1.896,2.011,3.367,4.372,4.415,7.083c1.05,2.71,1.574,5.584,1.574,8.613l-0.089,22.473c0,3.09-0.583,5.975-1.747,8.656
	c-1.167,2.68-2.757,5.027-4.769,7.039c-2.012,2.011-4.357,3.599-7.039,4.766c-2.683,1.166-5.565,1.748-8.655,1.748
	c-2.622,0-5.086-0.407-7.387-1.224c-2.303-0.817-4.388-1.981-6.252-3.497c0.347-1.167,0.816-2.305,1.398-3.411
	c0.581-1.107,1.312-2.216,2.187-3.322l0.09-0.088c1.862,1.865,3.656,3.062,5.375,3.585c1.72,0.525,3.249,0.759,4.589,0.7
	c1.573,0,3.062-0.38,4.461-1.138c1.399-0.758,2.625-1.809,3.674-3.147c1.052-1.343,1.895-2.915,2.536-4.721
	c0.638-1.808,0.961-3.731,0.961-5.771V71.61c0-2.041-0.248-3.966-0.745-5.771c-0.495-1.806-1.211-3.38-2.143-4.722
	c-0.933-1.341-2.04-2.39-3.32-3.148c-1.285-0.756-2.71-1.137-4.284-1.137c-1.572,0-3.016,0.394-4.329,1.181
	c-1.312,0.787-2.418,1.865-3.322,3.235c-0.905,1.37-1.605,2.96-2.097,4.766c-0.498,1.807-0.744,3.732-0.744,5.771
	c0,2.041,0.246,3.978,0.744,5.813c0.494,1.838,1.191,3.426,2.097,4.767c0.904,1.341,2.011,2.404,3.322,3.191
	c1.311,0.786,2.757,1.181,4.329,1.181c1.864,0,3.424-0.539,4.678-1.618c1.251-1.079,2.404-2.521,3.454-4.328v11.192
	c-1.398,0.641-2.684,1.137-3.848,1.487c-1.169,0.349-2.595,0.523-4.284,0.523c-3.09,0-5.918-0.582-8.482-1.747
	c-2.564-1.167-4.777-2.756-6.645-4.767c-1.866-2.011-3.323-4.358-4.372-7.039c-1.051-2.68-1.574-5.566-1.574-8.656
	c0-3.029,0.523-5.903,1.574-8.613c1.049-2.711,2.506-5.072,4.372-7.083c1.864-2.011,4.08-3.598,6.645-4.765
	S267.623,49.574,270.713,49.574z"/>
<path fill="#FFFFFF" d="M318.891,49.313c3.029,0,5.901,0.582,8.611,1.748c2.71,1.167,5.071,2.755,7.082,4.766
	c2.013,2.011,3.601,4.372,4.768,7.082c1.164,2.712,1.748,5.584,1.748,8.613c0,3.092-0.584,5.978-1.748,8.658
	c-1.167,2.681-2.755,5.027-4.768,7.039c-2.011,2.011-4.372,3.599-7.082,4.765c-2.71,1.164-5.582,1.749-8.611,1.749
	c-3.092,0-5.977-0.583-8.655-1.749c-2.683-1.166-5.026-2.754-7.039-4.765c-2.012-2.012-3.602-4.358-4.768-7.039
	c-1.167-2.681-1.748-5.566-1.748-8.658c0-3.031,0.581-5.901,1.748-8.613c1.166-2.709,2.756-5.07,4.768-7.082
	c2.013-2.011,4.356-3.601,7.039-4.766C312.918,49.895,315.8,49.313,318.891,49.313z M318.891,86.475
	c1.572,0,3.074-0.395,4.503-1.182c1.427-0.787,2.667-1.849,3.717-3.19c1.052-1.341,1.881-2.931,2.492-4.767
	c0.613-1.836,0.92-3.772,0.92-5.815c0-2.039-0.307-3.963-0.92-5.771c-0.611-1.808-1.44-3.396-2.492-4.765
	c-1.05-1.37-2.287-2.45-3.717-3.237c-1.427-0.786-2.931-1.18-4.503-1.18c-1.633,0-3.148,0.394-4.548,1.18
	c-1.398,0.787-2.624,1.867-3.672,3.237c-1.052,1.369-1.881,2.957-2.493,4.765s-0.919,3.731-0.919,5.771
	c0,2.041,0.307,3.979,0.919,5.815s1.441,3.426,2.493,4.767c1.048,1.342,2.273,2.403,3.672,3.19
	C315.743,86.081,317.259,86.475,318.891,86.475z"/>
<path fill="#FFFFFF" d="M366.982,49.313c3.092,0,5.933,0.582,8.528,1.748c2.592,1.167,4.823,2.755,6.69,4.766
	c1.863,2.011,3.32,4.372,4.372,7.082c1.048,2.712,1.574,5.584,1.574,8.613v18.189c-1.518,0.816-3.137,1.471-4.854,1.967
	c-1.724,0.495-3.662,0.742-5.813,0.742V71.521c0-2.039-0.249-3.963-0.743-5.771c-0.498-1.808-1.195-3.396-2.101-4.765
	c-0.903-1.37-1.997-2.45-3.279-3.237c-1.28-0.786-2.739-1.18-4.372-1.18c-1.572,0-3.014,0.394-4.326,1.18
	c-1.312,0.787-2.42,1.867-3.325,3.237c-0.903,1.369-1.602,2.957-2.095,4.765c-0.496,1.808-0.744,3.731-0.744,5.771v18.189
	c-1.517,0.816-3.133,1.471-4.854,1.967c-1.72,0.495-3.627,0.742-5.728,0.742V71.521c0-3.031,0.523-5.901,1.573-8.613
	c1.05-2.709,2.505-5.069,4.372-7.082c1.865-2.011,4.079-3.601,6.646-4.766C361.069,49.895,363.892,49.313,366.982,49.313z"/>
<path fill="#FFFFFF" d="M465.354,50.536c1.341,0,2.639,0.118,3.892,0.349c1.252,0.233,2.462,0.583,3.629,1.05L469.9,58.58
	c-1.517-0.581-3.031-0.815-4.546-0.699c-1.573,0-3.06,0.393-4.46,1.18c-1.4,0.787-2.624,1.854-3.675,3.192
	c-1.05,1.342-1.882,2.916-2.493,4.721c-0.612,1.808-0.917,3.732-0.917,5.771v16.876c-1.517,0.818-3.131,1.458-4.853,1.925
	c-1.723,0.468-3.661,0.7-5.814,0.7V72.746c0-3.031,0.579-5.902,1.746-8.612c1.169-2.711,2.759-5.072,4.769-7.083
	c2.012-2.011,4.356-3.598,7.039-4.768C459.379,51.118,462.261,50.536,465.354,50.536z"/>
<path fill="#FFFFFF" d="M495.521,49.313c3.031,0,5.903,0.582,8.613,1.748c2.706,1.167,5.069,2.755,7.078,4.766
	c2.016,2.011,3.604,4.372,4.769,7.082c1.164,2.712,1.747,5.584,1.747,8.613c0,3.092-0.583,5.978-1.747,8.658
	c-1.167,2.681-2.756,5.027-4.769,7.039c-2.009,2.011-4.372,3.599-7.078,4.765c-2.71,1.164-5.582,1.749-8.613,1.749
	c-3.092,0-5.975-0.583-8.653-1.749c-2.685-1.166-5.03-2.754-7.039-4.765c-2.016-2.012-3.604-4.358-4.768-7.039
	c-1.167-2.681-1.751-5.566-1.751-8.658c0-3.031,0.584-5.901,1.751-8.613c1.164-2.709,2.752-5.07,4.768-7.082
	c2.009-2.011,4.354-3.601,7.039-4.766C489.548,49.895,492.429,49.313,495.521,49.313z M495.521,86.475
	c1.573,0,3.074-0.395,4.503-1.182c1.43-0.787,2.667-1.849,3.717-3.19c1.051-1.341,1.879-2.931,2.491-4.767
	c0.614-1.836,0.922-3.772,0.922-5.815c0-2.039-0.308-3.963-0.922-5.771c-0.612-1.808-1.44-3.396-2.491-4.765
	c-1.05-1.37-2.285-2.45-3.717-3.237c-1.428-0.786-2.93-1.18-4.503-1.18c-1.632,0-3.148,0.394-4.546,1.18
	c-1.4,0.787-2.625,1.867-3.674,3.237c-1.05,1.369-1.878,2.957-2.49,4.765s-0.919,3.731-0.919,5.771c0,2.041,0.307,3.979,0.919,5.815
	s1.44,3.426,2.49,4.767c1.051,1.342,2.274,2.403,3.674,3.19C492.373,86.081,493.889,86.475,495.521,86.475z"/>
<path fill="#FFFFFF" d="M544.751,49.313c3.031,0,5.903,0.582,8.613,1.748c2.707,1.167,5.069,2.755,7.079,4.766
	c2.013,2.011,3.604,4.372,4.768,7.082c1.164,2.712,1.745,5.584,1.745,8.613c0,3.092-0.581,5.978-1.745,8.658
	c-1.17,2.681-2.758,5.027-4.768,7.039c-2.01,2.011-4.372,3.599-7.079,4.765c-2.71,1.164-5.582,1.749-8.613,1.749
	c-3.265,0-6.324-0.67-9.18-2.011V80.529c1.048,1.807,2.374,3.249,3.977,4.328c1.603,1.08,3.339,1.618,5.203,1.618
	c1.574,0,3.071-0.395,4.503-1.182c1.428-0.787,2.667-1.849,3.718-3.19c1.05-1.341,1.879-2.931,2.49-4.767
	c0.612-1.836,0.92-3.772,0.92-5.815c0-2.039-0.308-3.963-0.92-5.771c-0.611-1.808-1.44-3.396-2.49-4.765
	c-1.051-1.37-2.288-2.45-3.718-3.237c-1.43-0.786-2.929-1.18-4.503-1.18s-3.074,0.38-4.503,1.137
	c-1.429,0.757-2.667,1.807-3.717,3.148c-1.051,1.342-1.882,2.916-2.494,4.721c-0.611,1.807-0.919,3.731-0.919,5.771v40.225
	c-1.515,0.815-3.117,1.456-4.808,1.923c-1.691,0.467-3.615,0.7-5.772,0.7V71.521c0-3.031,0.583-5.901,1.75-8.613
	c1.164-2.709,2.753-5.07,4.765-7.082c2.013-2.011,4.358-3.599,7.04-4.766C538.773,49.895,541.66,49.313,544.751,49.313z"/>
</svg>
